<svg width="448" height="123" viewBox="0 0 448 123" fill="none" xmlns="http://www.w3.org/2000/svg">
<g clip-path="url(#clip0_1_85)">
<rect x="115.33" y="56" width="112" height="11" fill="#191308"/>
<rect x="115" y="1" width="112" height="11" fill="#191308"/>
<rect x="115" y="112" width="112" height="11" fill="#191308"/>
<rect x="226.67" y="1" width="112" height="11" fill="#191308"/>
<rect x="276" y="7" width="13" height="116" fill="#191308"/>
<path d="M448 123C448 90.3784 442.311 59.0928 432.184 36.0259C422.057 12.9589 408.322 2.46286e-06 394 0C379.678 -2.46286e-06 365.943 12.9589 355.816 36.0259C345.689 59.0928 340 90.3784 340 123H350.045C350.045 96.4464 354.676 70.9803 362.919 52.2041C371.162 33.4278 382.342 22.8795 394 22.8795C405.658 22.8795 416.838 33.4279 425.081 52.2041C433.324 70.9803 437.955 96.4464 437.955 123H448Z" fill="#191308"/>
<path d="M-0.332632 63.648C26.1884 63.8219 51.6751 60.6704 70.5204 54.8866C89.3658 49.1029 100.026 41.1608 100.157 32.8075C100.287 24.4542 89.8764 16.374 71.2153 10.3443C52.5543 4.3147 27.1712 0.829583 0.650101 0.655682L0.542002 7.58484C21.2284 7.72048 41.0272 10.4389 55.5829 15.142C70.1385 19.8451 78.2587 26.1477 78.157 32.6633C78.0554 39.1789 69.7403 45.3737 55.0409 49.885C40.3415 54.3963 20.4619 56.8545 -0.224533 56.7189L-0.332632 63.648Z" fill="#191308"/>
<path d="M-1.00216 122.507C25.5189 122.681 51.0055 119.53 69.8509 113.746C88.6963 107.962 99.3567 100.02 99.4871 91.6667C99.6174 83.3134 89.2069 75.2332 70.5458 69.2035C51.8847 63.1739 26.5016 59.6888 -0.0194242 59.5149L-0.127523 66.444C20.5589 66.5797 40.3577 69.298 54.9134 74.0012C69.469 78.7043 77.5892 85.0069 77.4875 91.5225C77.3859 98.038 69.0707 104.233 54.3713 108.744C39.6719 113.255 19.7924 115.714 -0.894058 115.578L-1.00216 122.507Z" fill="#191308"/>
</g>
<defs>
<clipPath id="clip0_1_85">
<rect width="448" height="123" fill="white"/>
</clipPath>
</defs>
</svg>
